<svg width="234" height="58" viewBox="0 0 234 58" fill="url(#paint0_linear_817_1990)" xmlns="http://www.w3.org/2000/svg">
<path fill-rule="evenodd" clip-rule="evenodd" d="M222.806 0.264663C224.526 0.259414 225.924 1.65205 225.93 3.3752L225.959 13.0865H230.62C232.339 13.0865 233.734 14.4834 233.734 16.2066C233.734 17.9297 232.339 19.3266 230.62 19.3266H225.978L226.072 50.3389C226.078 52.062 224.688 53.4632 222.968 53.4684C221.248 53.4737 219.849 52.081 219.844 50.3579L219.75 19.3266H215.152C213.432 19.3266 212.038 17.9297 212.038 16.2066C212.038 14.4834 213.432 13.0865 215.152 13.0865H219.731L219.701 3.39421C219.696 1.67106 221.086 0.269913 222.806 0.264663ZM0.265381 3.38471C0.265381 1.66156 1.65961 0.264662 3.37948 0.264662H23.5295C30.4671 0.264662 35.4868 4.37583 38.6158 9.83598C41.7088 15.2332 43.1579 22.211 43.1579 29.0001C43.1579 35.7893 41.7088 42.767 38.6158 48.1643C35.4868 53.6244 30.4671 57.7356 23.5295 57.7356H3.37948C1.65961 57.7356 0.265381 56.3387 0.265381 54.6156V3.38471ZM6.49357 6.50477V51.4955H23.5295C27.6015 51.4955 30.8389 49.2028 33.2146 45.0572C35.6264 40.8487 36.9297 35.0187 36.9297 29.0001C36.9297 22.9816 35.6264 17.1516 33.2146 12.9431C30.8389 8.79746 27.6015 6.50477 23.5295 6.50477H6.49357ZM84.8774 26.1038C90.3259 15.0922 102.33 10.1253 112.73 14.879C118.349 17.4466 122.31 22.5111 123.831 28.3587C126.708 39.4121 121.66 48.0149 114.119 51.6281C106.701 55.1821 96.9704 53.7942 91.1345 45.544C90.175 44.1875 90.4456 42.3155 91.7499 41.2876L103.502 32.0254C104.854 30.96 106.812 31.1943 107.875 32.5486C108.938 33.903 108.705 35.8646 107.353 36.9299L98.177 44.1616C102.039 47.6619 107.227 48.0134 111.432 45.9986C116.278 43.6768 119.93 38.0975 117.804 29.9337L117.804 29.9328C116.719 25.7605 113.931 22.2861 110.146 20.5566C103.239 17.399 94.6343 20.4339 90.4576 28.8754C89.6937 30.4192 87.8253 31.0503 86.2844 30.285C84.7434 29.5196 84.1135 27.6476 84.8774 26.1038ZM125.816 16.2066C125.816 14.4834 127.21 13.0865 128.93 13.0865H156.809C157.987 13.0865 159.063 13.7519 159.592 14.8062C160.12 15.8605 160.01 17.1232 159.307 18.0696L137.643 47.2287H160.236C161.956 47.2287 163.35 48.6256 163.35 50.3487C163.35 52.0719 161.956 53.4688 160.236 53.4688H131.443C130.266 53.4688 129.189 52.8034 128.66 51.7491C128.132 50.6949 128.242 49.4321 128.945 48.4857L150.609 19.3266H128.93C127.21 19.3266 125.816 17.9297 125.816 16.2066ZM166.722 13.0865C168.442 13.0865 169.836 14.4834 169.836 16.2066V35.9409C169.836 41.6292 174.018 46.4549 179.542 47.1286L179.556 47.1303C179.728 47.1521 179.899 47.1698 180.069 47.1835L180.088 47.1851C186.586 47.7493 192.208 42.5286 192.208 35.9183V16.2066C192.208 14.4834 193.603 13.0865 195.322 13.0865C197.042 13.0865 198.436 14.4834 198.436 16.2066V35.9183C198.436 46.107 189.769 54.2832 179.561 53.4028C179.301 53.3817 179.041 53.3548 178.782 53.3221C170.025 52.2504 163.608 44.668 163.608 35.9409V16.2066C163.608 14.4834 165.002 13.0865 166.722 13.0865ZM57.3127 14.9245C64.7301 11.3705 74.4611 12.7585 80.297 21.0087C81.2565 22.3652 80.9859 24.2372 79.6816 25.2651L67.9293 34.5273C66.5775 35.5926 64.6197 35.3584 63.5564 34.004C62.493 32.6496 62.7269 30.6881 64.0787 29.6227L73.2545 22.3911C69.3923 18.8908 64.2048 18.5392 59.9998 20.554C55.154 22.8759 51.5018 28.4551 53.6272 36.6189L53.6275 36.6198C54.7124 40.7921 57.5007 44.2665 61.2859 45.9961C68.1929 49.1537 76.7971 46.1187 80.9739 37.6773C81.7378 36.1334 83.6062 35.5023 85.1471 36.2677C86.688 37.033 87.3179 38.905 86.554 40.4489C81.1056 51.4604 69.101 56.4274 58.7016 51.6736C53.0823 49.1061 49.1215 44.0415 47.6007 38.1939M57.3127 14.9245C53.2209 16.8852 49.8628 20.3149 48.1067 24.808C46.6266 28.5951 46.2845 33.1378 47.6005 38.193M205.22 13.0888C206.94 13.0816 208.34 14.4726 208.347 16.1958L208.49 50.3354C208.497 52.0586 207.109 53.4613 205.389 53.4685C203.669 53.4758 202.269 52.0847 202.262 50.3616L202.119 16.2219C202.112 14.4988 203.5 13.096 205.22 13.0888Z" fill="inherit"/>
<defs>
<linearGradient id="paint0_linear_817_1990" x1="19.9216" y1="29.0001" x2="24.191" y2="114.288" gradientUnits="userSpaceOnUse">
<stop stop-color="#B2345A"/>
<stop offset="1" stop-color="#591731"/>
</linearGradient>
</defs>
</svg>
